<svg xmlns="http://www.w3.org/2000/svg" width="70.890" height="18.383" viewBox="0 0 70.890 18.383">
  <g id="group_5634" data-name="group 5634" transform="translate(-108.064 -125.196)">
    <g id="group_5631" data-name="group 5631" transform="translate(108.064 125.196)">
      <g id="group_5630" data-name="group 5630">
        <g id="group_5629" data-name="group 5629">
          <path id="path_10974" data-name="path 10974" d="M115.531,125.2v2.556H113.9c-4.832,0-5.833,3.614-5.833,6.212a6.67,6.67,0,0,0,1.619,4.657,4.678,4.678,0,0,0,3.483,1.435,4.979,4.979,0,0,0,2.365-.516l.018.26h3.189V125.2Zm-4.427,8.68c0-1.235.352-3.32,2.662-3.482.316-.022,1.158-.086,1.765-.106v6.394a3.486,3.486,0,0,1-1.811.517,2.454,2.454,0,0,1-1.772-.605h0A3.668,3.668,0,0,1,111.1,133.876Z" transform="translate(-108.064 -125.196)" fill="#1a1311"/>
          <path id="path_10975" data-name="path 10975" d="M155.643,142.26a2.767,2.767,0,0,1-2.924-2.571h7.726l0-.125c.012-1.089,0-2.011-.036-2.414a4.808,4.808,0,0,0-5.228-4.685,5.422,5.422,0,0,0-4.4,1.971h0a7.2,7.2,0,0,0-1.429,4.525c0,2.955,1.668,6.118,6.351,6.118a11.043,11.043,0,0,0,4.551-1.049v-2.961A9.248,9.248,0,0,1,155.643,142.26Zm-.465-7.064a2.036,2.036,0,0,1,2.1,1.9h-4.5A2.366,2.366,0,0,1,155.178,135.2Z" transform="translate(-136.643 -130.227)" fill="#1a1311"/>
          <path id="path_10976" data-name="path 10976" d="M200.776,137.773v7.133h3.2V137.3c0-3.178-1.47-4.727-4.491-4.727a8.382,8.382,0,0,0-2.618.546l-.016-.26h-3.19v12.047h3.206v-9.024a3.747,3.747,0,0,1,2.631-.411C200.359,135.667,200.776,136.211,200.776,137.773Z" transform="translate(-167.31 -130.301)" fill="#1a1311"/>
          <path id="path_10977" data-name="path 10977" d="M308,140.623v-7.131h-3.206v7.6c0,3.184,1.475,4.735,4.5,4.735a8.5,8.5,0,0,0,2.623-.549l.016.26h3.187v-12.05h-3.2v9.024a3.742,3.742,0,0,1-2.632.414C308.419,142.731,308,142.186,308,140.623Z" transform="translate(-244.233 -130.938)" fill="#1a1311"/>
          <g id="group_5628" data-name="group 5628" transform="translate(39.372)">
            <path id="path_10978" data-name="path 10978" d="M235.963,125.2v10.453a5.15,5.15,0,0,0,.78,3.163,3.635,3.635,0,0,0,3.133,1.247,10.558,10.558,0,0,0,3-.469v-2.885a13.039,13.039,0,0,1-2.414.375,1.371,1.371,0,0,1-1-.3,1.811,1.811,0,0,1-.3-1.294V130.4c1.267,0,2.836.087,3.708.183v-2.832h-3.708V125.2Z" transform="translate(-235.963 -125.196)" fill="#1a1311"/>
          </g>
          <path id="path_10979" data-name="path 10979" d="M275.248,139.035c-.64-.888-1.628-1.341-3.441-1.684a8.464,8.464,0,0,1-2.156-.577.617.617,0,0,1-.374-.543.628.628,0,0,1,.358-.519,4.144,4.144,0,0,1,2.6-.149,17.138,17.138,0,0,1,3.034.887v-2.914a8.812,8.812,0,0,0-4.283-1,5.886,5.886,0,0,0-3.448,1.04,3.7,3.7,0,0,0-1.5,2.882c-.09,2,1.159,3.194,4.052,3.752a13.488,13.488,0,0,1,1.85.457c.381.152.6.4.6.678a.724.724,0,0,1-.487.649,4.657,4.657,0,0,1-1.984.135,13.652,13.652,0,0,1-3.808-1.011v2.99a9.351,9.351,0,0,0,4.35,1.037c2.1-.039,4.7-.658,5.177-3.427A3.523,3.523,0,0,0,275.248,139.035Z" transform="translate(-217.405 -130.277)" fill="#1a1311"/>
        </g>
      </g>
    </g>
  </g>
</svg>
