<svg width="142" height="18" viewBox="0 0 142 18" fill="none" xmlns="http://www.w3.org/2000/svg">
<path d="M32.3741 18H28.6019V7.30645L22.9436 13.0403L17.2853 7.30645V18H13.5131V0H15.5185L22.9913 7.57258L30.3687 0H32.3741V18Z" fill="#12295D"/>
<path d="M9.74091 8.08557H0L9.74091 17.9565V8.08557Z" fill="#F23A1D"/>
<path d="M54.575 17.9471H37.3405V0H53.8467V3.69788H41.1272V6.65619H49.4774V10.2555H41.1272V14.3478H54.575V17.9471Z" fill="#12295D"/>
<path d="M77.8604 17.9471H73.6435L68.9903 10.6402H62.8346V17.9471H59.1024V0.0965576H70.9292C72.6741 0.0965576 74.0313 0.537917 75.0976 1.3716C76.2609 2.30336 76.8425 3.62744 76.8425 5.34384C76.8425 6.5208 76.5032 7.55064 75.8731 8.4824C75.1945 9.41416 74.3221 10.0517 73.2073 10.444L77.8604 17.9471ZM73.0134 5.34384C73.0134 4.85344 72.868 4.46112 72.5287 4.16688C72.1894 3.92168 71.6077 3.77456 70.8807 3.77456H62.8346V7.06024H70.8807C71.6562 7.06024 72.1894 6.91312 72.5287 6.61888C72.868 6.17752 73.0134 5.7852 73.0134 5.34384Z" fill="#12295D"/>
<path d="M100.391 17.9471H95.9746L89.422 9.02184L86.7525 11.3267V17.9471H82.9666V0.0965576H86.7525V6.766L94.567 0.0965576H99.809L92.1401 6.66792L100.391 17.9471Z" fill="#12295D"/>
<path d="M120.68 17.9471H104.779V0H108.56V14.3478H120.68V17.9471Z" fill="#12295D"/>
<path d="M141.995 17.9471H124.76V0H141.266V3.69788H128.498V6.65619H136.848V10.2555H128.498V14.3478H141.995V17.9471Z" fill="#12295D"/>
</svg>
